<mxfile host="app.diagrams.net" modified="2023-05-10T19:40:42.091Z" agent="Mozilla/5.0 (Windows NT 10.0; Win64; x64) AppleWebKit/537.36 (KHTML, like Gecko) Chrome/113.0.0.0 Safari/537.36" etag="RoWUXLDBwYi8tGV9kjVk" version="21.2.9" type="device">
  <diagram name="Page-1" id="uO2A3-k_JrY0HGPPehXn">
    <mxGraphModel dx="2438" dy="1014" grid="1" gridSize="10" guides="1" tooltips="1" connect="1" arrows="1" fold="1" page="1" pageScale="1" pageWidth="850" pageHeight="1100" math="0" shadow="0">
      <root>
        <mxCell id="0" />
        <mxCell id="1" parent="0" />
        <mxCell id="3tm3c1cYjE_4kxaweS6J-3" value="" style="shape=mxgraph.signs.nature.sun_4;html=1;pointerEvents=1;fillColor=#FFD966;strokeColor=none;verticalLabelPosition=bottom;verticalAlign=top;align=center;" vertex="1" parent="1">
          <mxGeometry x="249.5" y="30" width="98" height="98" as="geometry" />
        </mxCell>
        <mxCell id="3tm3c1cYjE_4kxaweS6J-2" value="&lt;font style=&quot;font-size: 20px;&quot;&gt;&lt;b&gt;WEATHER&lt;br&gt;APPLICATION&lt;/b&gt;&lt;/font&gt;" style="ellipse;shape=cloud;whiteSpace=wrap;html=1;fillColor=#B5EEFF;" vertex="1" parent="1">
          <mxGeometry x="290" y="50" width="240" height="110" as="geometry" />
        </mxCell>
        <mxCell id="3tm3c1cYjE_4kxaweS6J-4" value="&lt;font style=&quot;font-size: 18px;&quot;&gt;LOCATION SERVICE&lt;/font&gt;" style="rounded=1;whiteSpace=wrap;html=1;fillColor=#FFDEDB;" vertex="1" parent="1">
          <mxGeometry x="70" y="290" width="140" height="70" as="geometry" />
        </mxCell>
        <mxCell id="3tm3c1cYjE_4kxaweS6J-5" value="&lt;font style=&quot;font-size: 18px;&quot;&gt;WEATHER SERVICE&lt;/font&gt;" style="rounded=1;whiteSpace=wrap;html=1;fillColor=#FFDEDB;" vertex="1" parent="1">
          <mxGeometry x="250" y="290" width="140" height="70" as="geometry" />
        </mxCell>
        <mxCell id="3tm3c1cYjE_4kxaweS6J-6" value="&lt;font style=&quot;font-size: 18px;&quot;&gt;FORECASTING SERVICE&lt;/font&gt;" style="rounded=1;whiteSpace=wrap;html=1;fillColor=#FFDEDB;" vertex="1" parent="1">
          <mxGeometry x="420" y="290" width="140" height="70" as="geometry" />
        </mxCell>
        <mxCell id="3tm3c1cYjE_4kxaweS6J-7" value="&lt;font style=&quot;font-size: 18px;&quot;&gt;ANALYTICS SERVICE&lt;/font&gt;" style="rounded=1;whiteSpace=wrap;html=1;fillColor=#FFDEDB;" vertex="1" parent="1">
          <mxGeometry x="590" y="290" width="140" height="70" as="geometry" />
        </mxCell>
        <mxCell id="3tm3c1cYjE_4kxaweS6J-8" value="&lt;font style=&quot;font-size: 18px;&quot;&gt;NOTIFICATION SERVICE&lt;/font&gt;" style="rounded=1;whiteSpace=wrap;html=1;fillColor=#FFDEDB;" vertex="1" parent="1">
          <mxGeometry x="760" y="290" width="140" height="70" as="geometry" />
        </mxCell>
        <mxCell id="3tm3c1cYjE_4kxaweS6J-10" value="" style="html=1;verticalLabelPosition=bottom;align=center;labelBackgroundColor=#ffffff;verticalAlign=top;strokeWidth=2;strokeColor=#0080F0;shadow=0;dashed=0;shape=mxgraph.ios7.icons.location;" vertex="1" parent="1">
          <mxGeometry x="100" y="260" width="24" height="30" as="geometry" />
        </mxCell>
        <mxCell id="3tm3c1cYjE_4kxaweS6J-11" value="" style="ellipse;shape=cloud;whiteSpace=wrap;html=1;fillColor=#D4EEFF;" vertex="1" parent="1">
          <mxGeometry x="250" y="270" width="40" height="17.5" as="geometry" />
        </mxCell>
        <mxCell id="3tm3c1cYjE_4kxaweS6J-12" value="" style="shape=mxgraph.signs.nature.sun_4;html=1;pointerEvents=1;fillColor=#FFD966;strokeColor=none;verticalLabelPosition=bottom;verticalAlign=top;align=center;" vertex="1" parent="1">
          <mxGeometry x="240" y="265" width="29" height="20" as="geometry" />
        </mxCell>
        <mxCell id="3tm3c1cYjE_4kxaweS6J-14" value="" style="sketch=0;pointerEvents=1;shadow=0;dashed=0;html=1;strokeColor=none;fillColor=#505050;labelPosition=center;verticalLabelPosition=bottom;verticalAlign=top;outlineConnect=0;align=center;shape=mxgraph.office.devices.tv;" vertex="1" parent="1">
          <mxGeometry x="420" y="260" width="50" height="30" as="geometry" />
        </mxCell>
        <mxCell id="3tm3c1cYjE_4kxaweS6J-18" value="" style="shape=mxgraph.signs.nature.sun_4;html=1;pointerEvents=1;fillColor=#FFD966;strokeColor=none;verticalLabelPosition=bottom;verticalAlign=top;align=center;" vertex="1" parent="1">
          <mxGeometry x="425" y="265" width="15" height="12.5" as="geometry" />
        </mxCell>
        <mxCell id="3tm3c1cYjE_4kxaweS6J-19" value="" style="ellipse;shape=cloud;whiteSpace=wrap;html=1;fillColor=#D4EEFF;" vertex="1" parent="1">
          <mxGeometry x="437.5" y="270" width="15" height="7.5" as="geometry" />
        </mxCell>
        <mxCell id="3tm3c1cYjE_4kxaweS6J-21" value="" style="image;html=1;image=img/lib/clip_art/finance/Graph_128x128.png" vertex="1" parent="1">
          <mxGeometry x="690" y="260" width="40" height="41.25" as="geometry" />
        </mxCell>
        <mxCell id="3tm3c1cYjE_4kxaweS6J-22" value="" style="shape=image;html=1;verticalAlign=top;verticalLabelPosition=bottom;labelBackgroundColor=#ffffff;imageAspect=0;aspect=fixed;image=https://cdn1.iconfinder.com/data/icons/ui-essential-17/32/UI_Essential_Outline_1_essential-app-ui-bell-notification-alert-128.png" vertex="1" parent="1">
          <mxGeometry x="860" y="261.25" width="27.5" height="27.5" as="geometry" />
        </mxCell>
        <mxCell id="3tm3c1cYjE_4kxaweS6J-24" value="" style="endArrow=classic;html=1;rounded=1;entryX=0.5;entryY=0;entryDx=0;entryDy=0;strokeWidth=2;" edge="1" parent="1" target="3tm3c1cYjE_4kxaweS6J-4">
          <mxGeometry width="50" height="50" relative="1" as="geometry">
            <mxPoint x="140" y="200" as="sourcePoint" />
            <mxPoint x="450" y="200" as="targetPoint" />
          </mxGeometry>
        </mxCell>
        <mxCell id="3tm3c1cYjE_4kxaweS6J-25" value="" style="endArrow=none;html=1;rounded=1;strokeWidth=2;" edge="1" parent="1">
          <mxGeometry width="50" height="50" relative="1" as="geometry">
            <mxPoint x="140" y="200" as="sourcePoint" />
            <mxPoint x="830" y="200" as="targetPoint" />
          </mxGeometry>
        </mxCell>
        <mxCell id="3tm3c1cYjE_4kxaweS6J-26" value="" style="endArrow=classic;html=1;rounded=1;entryX=0.5;entryY=0;entryDx=0;entryDy=0;strokeWidth=2;" edge="1" parent="1" target="3tm3c1cYjE_4kxaweS6J-8">
          <mxGeometry width="50" height="50" relative="1" as="geometry">
            <mxPoint x="830" y="200" as="sourcePoint" />
            <mxPoint x="450" y="200" as="targetPoint" />
          </mxGeometry>
        </mxCell>
        <mxCell id="3tm3c1cYjE_4kxaweS6J-27" value="" style="endArrow=classic;html=1;rounded=1;strokeWidth=2;" edge="1" parent="1">
          <mxGeometry width="50" height="50" relative="1" as="geometry">
            <mxPoint x="420" y="200" as="sourcePoint" />
            <mxPoint x="420" y="160" as="targetPoint" />
          </mxGeometry>
        </mxCell>
        <mxCell id="3tm3c1cYjE_4kxaweS6J-28" value="" style="endArrow=classic;html=1;rounded=1;entryX=0.5;entryY=0;entryDx=0;entryDy=0;strokeWidth=2;" edge="1" parent="1" target="3tm3c1cYjE_4kxaweS6J-5">
          <mxGeometry width="50" height="50" relative="1" as="geometry">
            <mxPoint x="320" y="200" as="sourcePoint" />
            <mxPoint x="450" y="200" as="targetPoint" />
          </mxGeometry>
        </mxCell>
        <mxCell id="3tm3c1cYjE_4kxaweS6J-29" value="" style="endArrow=classic;html=1;rounded=1;entryX=0.5;entryY=0;entryDx=0;entryDy=0;strokeWidth=2;" edge="1" parent="1" target="3tm3c1cYjE_4kxaweS6J-6">
          <mxGeometry width="50" height="50" relative="1" as="geometry">
            <mxPoint x="490" y="200" as="sourcePoint" />
            <mxPoint x="450" y="200" as="targetPoint" />
          </mxGeometry>
        </mxCell>
        <mxCell id="3tm3c1cYjE_4kxaweS6J-30" value="" style="endArrow=classic;html=1;rounded=1;entryX=0.5;entryY=0;entryDx=0;entryDy=0;strokeWidth=2;" edge="1" parent="1" target="3tm3c1cYjE_4kxaweS6J-7">
          <mxGeometry width="50" height="50" relative="1" as="geometry">
            <mxPoint x="660" y="200" as="sourcePoint" />
            <mxPoint x="450" y="200" as="targetPoint" />
          </mxGeometry>
        </mxCell>
        <mxCell id="3tm3c1cYjE_4kxaweS6J-31" value="" style="endArrow=classic;html=1;rounded=1;exitX=0.75;exitY=1;exitDx=0;exitDy=0;entryX=0.5;entryY=1;entryDx=0;entryDy=0;" edge="1" parent="1" source="3tm3c1cYjE_4kxaweS6J-4" target="3tm3c1cYjE_4kxaweS6J-6">
          <mxGeometry width="50" height="50" relative="1" as="geometry">
            <mxPoint x="400" y="380" as="sourcePoint" />
            <mxPoint x="450" y="330" as="targetPoint" />
            <Array as="points">
              <mxPoint x="175" y="400" />
              <mxPoint x="490" y="400" />
            </Array>
          </mxGeometry>
        </mxCell>
        <mxCell id="3tm3c1cYjE_4kxaweS6J-32" value="" style="endArrow=classic;html=1;rounded=1;exitX=0.75;exitY=1;exitDx=0;exitDy=0;entryX=0.25;entryY=1;entryDx=0;entryDy=0;" edge="1" parent="1" source="3tm3c1cYjE_4kxaweS6J-5" target="3tm3c1cYjE_4kxaweS6J-6">
          <mxGeometry width="50" height="50" relative="1" as="geometry">
            <mxPoint x="400" y="380" as="sourcePoint" />
            <mxPoint x="450" y="330" as="targetPoint" />
            <Array as="points">
              <mxPoint x="355" y="380" />
              <mxPoint x="455" y="380" />
            </Array>
          </mxGeometry>
        </mxCell>
        <mxCell id="3tm3c1cYjE_4kxaweS6J-33" value="&lt;font style=&quot;font-size: 16px;&quot;&gt;Location information&lt;/font&gt;" style="text;html=1;strokeColor=none;fillColor=none;align=center;verticalAlign=middle;whiteSpace=wrap;rounded=0;" vertex="1" parent="1">
          <mxGeometry x="150" y="400" width="164.5" height="30" as="geometry" />
        </mxCell>
        <mxCell id="3tm3c1cYjE_4kxaweS6J-35" value="&lt;font style=&quot;font-size: 16px;&quot;&gt;Weather data&lt;/font&gt;" style="text;html=1;strokeColor=none;fillColor=none;align=center;verticalAlign=middle;whiteSpace=wrap;rounded=0;" vertex="1" parent="1">
          <mxGeometry x="343.5" y="360" width="120" height="30" as="geometry" />
        </mxCell>
        <mxCell id="3tm3c1cYjE_4kxaweS6J-37" value="" style="endArrow=classic;html=1;rounded=1;exitX=0.75;exitY=1;exitDx=0;exitDy=0;entryX=0.25;entryY=1;entryDx=0;entryDy=0;" edge="1" parent="1" source="3tm3c1cYjE_4kxaweS6J-6" target="3tm3c1cYjE_4kxaweS6J-7">
          <mxGeometry width="50" height="50" relative="1" as="geometry">
            <mxPoint x="460" y="310" as="sourcePoint" />
            <mxPoint x="510" y="260" as="targetPoint" />
            <Array as="points">
              <mxPoint x="525" y="400" />
              <mxPoint x="625" y="400" />
            </Array>
          </mxGeometry>
        </mxCell>
        <mxCell id="3tm3c1cYjE_4kxaweS6J-38" value="&lt;font style=&quot;font-size: 16px;&quot;&gt;Forecast data&lt;/font&gt;" style="text;html=1;strokeColor=none;fillColor=none;align=center;verticalAlign=middle;whiteSpace=wrap;rounded=0;" vertex="1" parent="1">
          <mxGeometry x="520" y="400" width="120" height="30" as="geometry" />
        </mxCell>
        <mxCell id="3tm3c1cYjE_4kxaweS6J-39" value="" style="endArrow=classic;html=1;rounded=1;exitX=0.5;exitY=1;exitDx=0;exitDy=0;entryX=0.5;entryY=1;entryDx=0;entryDy=0;jumpStyle=arc;jumpSize=16;" edge="1" parent="1" source="3tm3c1cYjE_4kxaweS6J-5" target="3tm3c1cYjE_4kxaweS6J-7">
          <mxGeometry width="50" height="50" relative="1" as="geometry">
            <mxPoint x="460" y="380" as="sourcePoint" />
            <mxPoint x="510" y="330" as="targetPoint" />
            <Array as="points">
              <mxPoint x="320" y="440" />
              <mxPoint x="660" y="440" />
            </Array>
          </mxGeometry>
        </mxCell>
        <mxCell id="3tm3c1cYjE_4kxaweS6J-40" value="&lt;font style=&quot;font-size: 16px;&quot;&gt;Weather data&lt;/font&gt;" style="text;html=1;strokeColor=none;fillColor=none;align=center;verticalAlign=middle;whiteSpace=wrap;rounded=0;" vertex="1" parent="1">
          <mxGeometry x="350" y="415" width="120" height="30" as="geometry" />
        </mxCell>
        <mxCell id="3tm3c1cYjE_4kxaweS6J-41" value="" style="endArrow=classic;html=1;rounded=1;exitX=0.5;exitY=1;exitDx=0;exitDy=0;entryX=0.75;entryY=1;entryDx=0;entryDy=0;jumpStyle=arc;" edge="1" parent="1" source="3tm3c1cYjE_4kxaweS6J-4" target="3tm3c1cYjE_4kxaweS6J-7">
          <mxGeometry width="50" height="50" relative="1" as="geometry">
            <mxPoint x="390" y="390" as="sourcePoint" />
            <mxPoint x="440" y="340" as="targetPoint" />
            <Array as="points">
              <mxPoint x="140" y="480" />
              <mxPoint x="695" y="480" />
            </Array>
          </mxGeometry>
        </mxCell>
        <mxCell id="3tm3c1cYjE_4kxaweS6J-42" value="&lt;font style=&quot;font-size: 16px;&quot;&gt;Location information&lt;/font&gt;" style="text;html=1;strokeColor=none;fillColor=none;align=center;verticalAlign=middle;whiteSpace=wrap;rounded=0;" vertex="1" parent="1">
          <mxGeometry x="310" y="454" width="164.5" height="30" as="geometry" />
        </mxCell>
        <mxCell id="3tm3c1cYjE_4kxaweS6J-43" value="" style="endArrow=classic;html=1;rounded=1;exitX=0.25;exitY=1;exitDx=0;exitDy=0;entryX=0.75;entryY=1;entryDx=0;entryDy=0;" edge="1" parent="1" source="3tm3c1cYjE_4kxaweS6J-44" target="3tm3c1cYjE_4kxaweS6J-8">
          <mxGeometry width="50" height="50" relative="1" as="geometry">
            <mxPoint x="390" y="390" as="sourcePoint" />
            <mxPoint x="440" y="340" as="targetPoint" />
            <Array as="points">
              <mxPoint x="-75" y="520" />
              <mxPoint x="865" y="520" />
            </Array>
          </mxGeometry>
        </mxCell>
        <mxCell id="3tm3c1cYjE_4kxaweS6J-44" value="&lt;font style=&quot;font-size: 18px;&quot;&gt;USER SERVICE&lt;/font&gt;" style="rounded=1;whiteSpace=wrap;html=1;fillColor=#FFDEDB;" vertex="1" parent="1">
          <mxGeometry x="-110" y="290" width="140" height="70" as="geometry" />
        </mxCell>
        <mxCell id="3tm3c1cYjE_4kxaweS6J-45" value="" style="sketch=0;outlineConnect=0;fontColor=#232F3E;gradientColor=none;fillColor=#232F3D;strokeColor=none;dashed=0;verticalLabelPosition=bottom;verticalAlign=top;align=center;html=1;fontSize=12;fontStyle=0;aspect=fixed;pointerEvents=1;shape=mxgraph.aws4.user;" vertex="1" parent="1">
          <mxGeometry x="-100" y="250" width="41.25" height="41.25" as="geometry" />
        </mxCell>
        <mxCell id="3tm3c1cYjE_4kxaweS6J-47" value="" style="endArrow=classic;html=1;rounded=0;entryX=0.5;entryY=0;entryDx=0;entryDy=0;strokeWidth=2;" edge="1" parent="1" target="3tm3c1cYjE_4kxaweS6J-44">
          <mxGeometry width="50" height="50" relative="1" as="geometry">
            <mxPoint x="140" y="200" as="sourcePoint" />
            <mxPoint x="-30" y="340" as="targetPoint" />
            <Array as="points">
              <mxPoint x="-40" y="200" />
            </Array>
          </mxGeometry>
        </mxCell>
        <mxCell id="3tm3c1cYjE_4kxaweS6J-48" value="&lt;font style=&quot;font-size: 16px;&quot;&gt;User information&lt;/font&gt;" style="text;html=1;strokeColor=none;fillColor=none;align=center;verticalAlign=middle;whiteSpace=wrap;rounded=0;" vertex="1" parent="1">
          <mxGeometry x="220" y="494" width="120" height="30" as="geometry" />
        </mxCell>
        <mxCell id="3tm3c1cYjE_4kxaweS6J-49" value="" style="endArrow=classic;html=1;rounded=1;exitX=0.75;exitY=1;exitDx=0;exitDy=0;entryX=0.25;entryY=1;entryDx=0;entryDy=0;" edge="1" parent="1" source="3tm3c1cYjE_4kxaweS6J-44" target="3tm3c1cYjE_4kxaweS6J-4">
          <mxGeometry width="50" height="50" relative="1" as="geometry">
            <mxPoint x="240" y="280" as="sourcePoint" />
            <mxPoint x="290" y="230" as="targetPoint" />
            <Array as="points">
              <mxPoint x="-5" y="440" />
              <mxPoint x="105" y="440" />
            </Array>
          </mxGeometry>
        </mxCell>
        <mxCell id="3tm3c1cYjE_4kxaweS6J-50" value="&lt;font style=&quot;font-size: 16px;&quot;&gt;User information&lt;/font&gt;" style="text;html=1;strokeColor=none;fillColor=none;align=center;verticalAlign=middle;whiteSpace=wrap;rounded=0;" vertex="1" parent="1">
          <mxGeometry x="-10" y="440" width="120" height="30" as="geometry" />
        </mxCell>
        <mxCell id="3tm3c1cYjE_4kxaweS6J-52" value="" style="endArrow=classic;html=1;rounded=1;exitX=0.643;exitY=1;exitDx=0;exitDy=0;exitPerimeter=0;entryX=0.25;entryY=1;entryDx=0;entryDy=0;jumpStyle=arc;jumpSize=16;" edge="1" parent="1" source="3tm3c1cYjE_4kxaweS6J-6" target="3tm3c1cYjE_4kxaweS6J-8">
          <mxGeometry width="50" height="50" relative="1" as="geometry">
            <mxPoint x="240" y="280" as="sourcePoint" />
            <mxPoint x="750" y="400" as="targetPoint" />
            <Array as="points">
              <mxPoint x="510" y="500" />
              <mxPoint x="795" y="500" />
            </Array>
          </mxGeometry>
        </mxCell>
        <mxCell id="3tm3c1cYjE_4kxaweS6J-53" value="&lt;font style=&quot;font-size: 16px;&quot;&gt;Forecast data&lt;/font&gt;" style="text;html=1;strokeColor=none;fillColor=none;align=center;verticalAlign=middle;whiteSpace=wrap;rounded=0;" vertex="1" parent="1">
          <mxGeometry x="713" y="466" width="90" height="30" as="geometry" />
        </mxCell>
        <mxCell id="3tm3c1cYjE_4kxaweS6J-55" value="" style="rounded=0;whiteSpace=wrap;html=1;dashed=1;fillColor=none;" vertex="1" parent="1">
          <mxGeometry x="-140" y="180" width="1070" height="380" as="geometry" />
        </mxCell>
        <mxCell id="3tm3c1cYjE_4kxaweS6J-56" value="&lt;font style=&quot;font-size: 16px;&quot;&gt;MICROSERVICES&lt;/font&gt;" style="text;html=1;strokeColor=none;fillColor=none;align=center;verticalAlign=middle;whiteSpace=wrap;rounded=0;" vertex="1" parent="1">
          <mxGeometry x="343.5" y="560" width="60" height="30" as="geometry" />
        </mxCell>
      </root>
    </mxGraphModel>
  </diagram>
</mxfile>
